<svg width="221" height="16" viewBox="0 0 221 16" fill="none" xmlns="http://www.w3.org/2000/svg">
<path d="M8.96307 4.95819C8.91572 4.43736 8.70502 4.03253 8.33097 3.74371C7.96165 3.45014 7.43371 3.30336 6.74716 3.30336C6.29261 3.30336 5.91383 3.36255 5.6108 3.48092C5.30777 3.59929 5.08049 3.76264 4.92898 3.97098C4.77746 4.17458 4.69934 4.40895 4.6946 4.6741C4.68513 4.89191 4.72775 5.08367 4.82244 5.24939C4.92188 5.41511 5.06392 5.56189 5.24858 5.68973C5.43797 5.81283 5.66525 5.92174 5.9304 6.01643C6.19555 6.11113 6.49384 6.19399 6.82528 6.26501L8.07528 6.5491C8.79498 6.70535 9.42945 6.91369 9.97869 7.1741C10.5327 7.43452 10.9967 7.74465 11.3707 8.1045C11.7495 8.46435 12.036 8.87865 12.2301 9.3474C12.4242 9.81615 12.5237 10.3417 12.5284 10.9241C12.5237 11.8427 12.2917 12.631 11.8324 13.2892C11.3731 13.9473 10.7126 14.4516 9.85085 14.8019C8.99384 15.1523 7.95928 15.3275 6.74716 15.3275C5.5303 15.3275 4.4697 15.1452 3.56534 14.7806C2.66098 14.4161 1.95786 13.8621 1.45597 13.1187C0.954072 12.3753 0.696023 11.4355 0.681818 10.2991H4.0483C4.0767 10.7679 4.20218 11.1585 4.42472 11.471C4.64725 11.7835 4.95265 12.0202 5.34091 12.1812C5.7339 12.3422 6.18845 12.4227 6.70455 12.4227C7.17803 12.4227 7.58049 12.3588 7.91193 12.2309C8.24811 12.1031 8.50616 11.9255 8.68608 11.6983C8.866 11.471 8.95833 11.2106 8.96307 10.917C8.95833 10.6424 8.87311 10.408 8.70739 10.2139C8.54167 10.015 8.28598 9.84456 7.94034 9.70251C7.59943 9.55573 7.16383 9.42079 6.63352 9.29768L5.11364 8.94257C3.85417 8.65374 2.86222 8.18736 2.13778 7.54342C1.41335 6.89475 1.0535 6.0188 1.05824 4.91558C1.0535 4.01596 1.29498 3.22761 1.78267 2.55052C2.27036 1.87344 2.94508 1.3455 3.80682 0.966717C4.66856 0.587928 5.65104 0.398534 6.75426 0.398534C7.88116 0.398534 8.8589 0.590295 9.6875 0.973818C10.5208 1.35261 11.1671 1.88528 11.6264 2.57183C12.0857 3.25838 12.3201 4.05384 12.3295 4.95819H8.96307ZM14.2281 3.45251V0.597398H26.5222V3.45251H22.1116V15.1429H18.6457V3.45251H14.2281ZM37.4388 0.597398H40.9474V9.9795C40.9474 11.0638 40.6893 12.0084 40.1732 12.8133C39.6571 13.6135 38.9374 14.2338 38.0141 14.6741C37.0908 15.1097 36.0184 15.3275 34.7968 15.3275C33.561 15.3275 32.4815 15.1097 31.5582 14.6741C30.6349 14.2338 29.9175 13.6135 29.4062 12.8133C28.8948 12.0084 28.6391 11.0638 28.6391 9.9795V0.597398H32.1548V9.6741C32.1548 10.176 32.2637 10.6234 32.4815 11.0164C32.704 11.4094 33.0141 11.7172 33.4119 11.9397C33.8096 12.1623 34.2712 12.2735 34.7968 12.2735C35.3224 12.2735 35.7817 12.1623 36.1746 11.9397C36.5724 11.7172 36.8825 11.4094 37.105 11.0164C37.3276 10.6234 37.4388 10.176 37.4388 9.6741V0.597398ZM48.9273 15.1429H43.5509V0.597398H48.9202C50.4022 0.597398 51.6782 0.888591 52.7483 1.47098C53.8231 2.04863 54.6517 2.88196 55.2341 3.97098C55.8165 5.05526 56.1077 6.35261 56.1077 7.86302C56.1077 9.37817 55.8165 10.6803 55.2341 11.7693C54.6564 12.8583 53.8302 13.694 52.7554 14.2764C51.6806 14.854 50.4045 15.1429 48.9273 15.1429ZM47.0665 12.1457H48.7923C49.6067 12.1457 50.2956 12.0084 50.8591 11.7338C51.4273 11.4544 51.8558 11.0022 52.1446 10.3772C52.4382 9.74749 52.5849 8.90942 52.5849 7.86302C52.5849 6.81662 52.4382 5.98329 52.1446 5.36302C51.851 4.73802 51.4178 4.28821 50.8449 4.01359C50.2767 3.73423 49.5759 3.59456 48.7426 3.59456H47.0665V12.1457ZM58.5602 15.1429V0.597398H68.7023V3.45251H62.0759V6.43547H68.1838V9.29768H62.0759V12.2877H68.7023V15.1429H58.5602ZM83.6832 0.597398V15.1429H80.7003L74.9119 6.74797H74.8196V15.1429H71.304V0.597398H74.3295L80.054 8.97808H80.1747V0.597398H83.6832ZM85.818 3.45251V0.597398H98.112V3.45251H93.7015V15.1429H90.2356V3.45251H85.818ZM100.229 15.1429V0.597398H106.238C107.327 0.597398 108.266 0.793894 109.057 1.18689C109.853 1.57514 110.466 2.13386 110.897 2.86302C111.327 3.58745 111.543 4.44683 111.543 5.44115C111.543 6.44967 111.323 7.30668 110.882 8.01217C110.442 8.71293 109.817 9.24797 109.007 9.61728C108.198 9.98187 107.239 10.1642 106.131 10.1642H102.331V7.39427H105.478C106.008 7.39427 106.451 7.32562 106.806 7.18831C107.166 7.04626 107.438 6.83319 107.622 6.5491C107.807 6.26028 107.899 5.89096 107.899 5.44115C107.899 4.99134 107.807 4.61965 107.622 4.32609C107.438 4.0278 107.166 3.80526 106.806 3.65848C106.446 3.50696 106.003 3.43121 105.478 3.43121H103.745V15.1429H100.229ZM108.418 8.49513L112.04 15.1429H108.205L104.654 8.49513H108.418ZM113.871 15.1429V0.597398H124.013V3.45251H117.387V6.43547H123.495V9.29768H117.387V12.2877H124.013V15.1429H113.871ZM126.615 15.1429V0.597398H132.623C133.712 0.597398 134.652 0.810466 135.443 1.2366C136.238 1.658 136.852 2.24749 137.283 3.00507C137.713 3.75791 137.929 4.63386 137.929 5.63291C137.929 6.6367 137.709 7.51501 137.268 8.26785C136.833 9.01596 136.21 9.59598 135.4 10.0079C134.591 10.4198 133.63 10.6258 132.517 10.6258H128.81V7.85592H131.863C132.394 7.85592 132.837 7.76359 133.192 7.57893C133.551 7.39427 133.824 7.13622 134.008 6.80478C134.193 6.46861 134.285 6.07798 134.285 5.63291C134.285 5.1831 134.193 4.79484 134.008 4.46814C133.824 4.1367 133.551 3.88102 133.192 3.70109C132.832 3.52117 132.389 3.43121 131.863 3.43121H130.131V15.1429H126.615ZM140.062 15.1429V0.597398H146.07C147.159 0.597398 148.099 0.793894 148.89 1.18689C149.685 1.57514 150.299 2.13386 150.729 2.86302C151.16 3.58745 151.376 4.44683 151.376 5.44115C151.376 6.44967 151.156 7.30668 150.715 8.01217C150.275 8.71293 149.65 9.24797 148.84 9.61728C148.031 9.98187 147.072 10.1642 145.964 10.1642H142.164V7.39427H145.31C145.841 7.39427 146.283 7.32562 146.638 7.18831C146.998 7.04626 147.271 6.83319 147.455 6.5491C147.64 6.26028 147.732 5.89096 147.732 5.44115C147.732 4.99134 147.64 4.61965 147.455 4.32609C147.271 4.0278 146.998 3.80526 146.638 3.65848C146.279 3.50696 145.836 3.43121 145.31 3.43121H143.577V15.1429H140.062ZM148.251 8.49513L151.873 15.1429H148.038L144.487 8.49513H148.251ZM153.704 15.1429V0.597398H163.846V3.45251H157.22V6.43547H163.328V9.29768H157.22V12.2877H163.846V15.1429H153.704ZM178.827 0.597398V15.1429H175.844L170.056 6.74797H169.963V15.1429H166.448V0.597398H169.473L175.198 8.97808H175.318V0.597398H178.827ZM181.438 15.1429V0.597398H191.58V3.45251H184.953V6.43547H191.061V9.29768H184.953V12.2877H191.58V15.1429H181.438ZM202.981 0.597398H206.49V9.9795C206.49 11.0638 206.232 12.0084 205.715 12.8133C205.199 13.6135 204.48 14.2338 203.556 14.6741C202.633 15.1097 201.561 15.3275 200.339 15.3275C199.103 15.3275 198.024 15.1097 197.1 14.6741C196.177 14.2338 195.46 13.6135 194.948 12.8133C194.437 12.0084 194.181 11.0638 194.181 9.9795V0.597398H197.697V9.6741C197.697 10.176 197.806 10.6234 198.024 11.0164C198.246 11.4094 198.556 11.7172 198.954 11.9397C199.352 12.1623 199.813 12.2735 200.339 12.2735C200.865 12.2735 201.324 12.1623 201.717 11.9397C202.115 11.7172 202.425 11.4094 202.647 11.0164C202.87 10.6234 202.981 10.176 202.981 9.6741V0.597398ZM209.093 15.1429V0.597398H215.102C216.191 0.597398 217.13 0.793894 217.921 1.18689C218.717 1.57514 219.33 2.13386 219.761 2.86302C220.192 3.58745 220.407 4.44683 220.407 5.44115C220.407 6.44967 220.187 7.30668 219.746 8.01217C219.306 8.71293 218.681 9.24797 217.871 9.61728C217.062 9.98187 216.103 10.1642 214.995 10.1642H211.195V7.39427H214.342C214.872 7.39427 215.315 7.32562 215.67 7.18831C216.03 7.04626 216.302 6.83319 216.487 6.5491C216.671 6.26028 216.763 5.89096 216.763 5.44115C216.763 4.99134 216.671 4.61965 216.487 4.32609C216.302 4.0278 216.03 3.80526 215.67 3.65848C215.31 3.50696 214.867 3.43121 214.342 3.43121H212.609V15.1429H209.093ZM217.282 8.49513L220.904 15.1429H217.069L213.518 8.49513H217.282Z" fill="#101828"/>
</svg>
