<svg width="208" height="16" viewBox="0 0 208 16" fill="none" xmlns="http://www.w3.org/2000/svg">
<path d="M8.96307 4.95816C8.91572 4.43733 8.70502 4.0325 8.33097 3.74367C7.96165 3.45011 7.43371 3.30333 6.74716 3.30333C6.29261 3.30333 5.91383 3.36252 5.6108 3.48089C5.30777 3.59926 5.08049 3.76261 4.92898 3.97095C4.77746 4.17455 4.69934 4.40892 4.6946 4.67407C4.68513 4.89187 4.72775 5.08364 4.82244 5.24936C4.92188 5.41508 5.06392 5.56186 5.24858 5.6897C5.43797 5.8128 5.66525 5.9217 5.9304 6.0164C6.19555 6.1111 6.49384 6.19396 6.82528 6.26498L8.07528 6.54907C8.79498 6.70532 9.42945 6.91366 9.97869 7.17407C10.5327 7.43449 10.9967 7.74462 11.3707 8.10447C11.7495 8.46432 12.036 8.87862 12.2301 9.34737C12.4242 9.81612 12.5237 10.3417 12.5284 10.9241C12.5237 11.8426 12.2917 12.631 11.8324 13.2891C11.3731 13.9473 10.7126 14.4515 9.85085 14.8019C8.99384 15.1523 7.95928 15.3275 6.74716 15.3275C5.5303 15.3275 4.4697 15.1452 3.56534 14.7806C2.66098 14.416 1.95786 13.862 1.45597 13.1187C0.954072 12.3753 0.696023 11.4354 0.681818 10.2991H4.0483C4.0767 10.7678 4.20218 11.1584 4.42472 11.4709C4.64725 11.7834 4.95265 12.0202 5.34091 12.1812C5.7339 12.3422 6.18845 12.4227 6.70455 12.4227C7.17803 12.4227 7.58049 12.3587 7.91193 12.2309C8.24811 12.103 8.50616 11.9255 8.68608 11.6982C8.866 11.4709 8.95833 11.2105 8.96307 10.917C8.95833 10.6423 8.87311 10.408 8.70739 10.2138C8.54167 10.015 8.28598 9.84453 7.94034 9.70248C7.59943 9.5557 7.16383 9.42076 6.63352 9.29765L5.11364 8.94254C3.85417 8.65371 2.86222 8.18733 2.13778 7.54339C1.41335 6.89472 1.0535 6.01877 1.05824 4.91555C1.0535 4.01593 1.29498 3.22758 1.78267 2.55049C2.27036 1.87341 2.94508 1.34547 3.80682 0.966686C4.66856 0.587898 5.65104 0.398504 6.75426 0.398504C7.88116 0.398504 8.8589 0.590265 9.6875 0.973787C10.5208 1.35258 11.1671 1.88525 11.6264 2.5718C12.0857 3.25835 12.3201 4.05381 12.3295 4.95816H8.96307ZM14.2281 3.45248V0.597367H26.5222V3.45248H22.1116V15.1428H18.6457V3.45248H14.2281ZM37.4388 0.597367H40.9474V9.97947C40.9474 11.0638 40.6893 12.0084 40.1732 12.8133C39.6571 13.6135 38.9374 14.2337 38.0141 14.6741C37.0908 15.1097 36.0184 15.3275 34.7968 15.3275C33.561 15.3275 32.4815 15.1097 31.5582 14.6741C30.6349 14.2337 29.9175 13.6135 29.4062 12.8133C28.8948 12.0084 28.6391 11.0638 28.6391 9.97947V0.597367H32.1548V9.67407C32.1548 10.176 32.2637 10.6234 32.4815 11.0164C32.704 11.4094 33.0141 11.7172 33.4119 11.9397C33.8096 12.1622 34.2712 12.2735 34.7968 12.2735C35.3224 12.2735 35.7817 12.1622 36.1746 11.9397C36.5724 11.7172 36.8825 11.4094 37.105 11.0164C37.3276 10.6234 37.4388 10.176 37.4388 9.67407V0.597367ZM48.9273 15.1428H43.5509V0.597367H48.9202C50.4022 0.597367 51.6782 0.888561 52.7483 1.47095C53.8231 2.0486 54.6517 2.88193 55.2341 3.97095C55.8165 5.05523 56.1077 6.35258 56.1077 7.86299C56.1077 9.37814 55.8165 10.6802 55.2341 11.7692C54.6564 12.8583 53.8302 13.694 52.7554 14.2763C51.6806 14.854 50.4045 15.1428 48.9273 15.1428ZM47.0665 12.1457H48.7923C49.6067 12.1457 50.2956 12.0084 50.8591 11.7337C51.4273 11.4544 51.8558 11.0022 52.1446 10.3772C52.4382 9.74746 52.5849 8.90939 52.5849 7.86299C52.5849 6.81659 52.4382 5.98326 52.1446 5.36299C51.851 4.73799 51.4178 4.28818 50.8449 4.01356C50.2767 3.7342 49.5759 3.59453 48.7426 3.59453H47.0665V12.1457ZM58.5602 15.1428V0.597367H68.7023V3.45248H62.0759V6.43544H68.1838V9.29765H62.0759V12.2877H68.7023V15.1428H58.5602ZM83.6832 0.597367V15.1428H80.7003L74.9119 6.74794H74.8196V15.1428H71.304V0.597367H74.3295L80.054 8.97805H80.1747V0.597367H83.6832ZM85.818 3.45248V0.597367H98.112V3.45248H93.7015V15.1428H90.2356V3.45248H85.818ZM100.229 15.1428V0.597367H106.238C107.327 0.597367 108.266 0.793864 109.057 1.18686C109.853 1.57511 110.466 2.13383 110.897 2.86299C111.327 3.58742 111.543 4.4468 111.543 5.44112C111.543 6.44964 111.323 7.30665 110.882 8.01214C110.442 8.7129 109.817 9.24794 109.007 9.61725C108.198 9.98184 107.239 10.1641 106.131 10.1641H102.331V7.39424H105.478C106.008 7.39424 106.451 7.32559 106.806 7.18828C107.166 7.04623 107.438 6.83316 107.622 6.54907C107.807 6.26025 107.899 5.89093 107.899 5.44112C107.899 4.99131 107.807 4.61962 107.622 4.32606C107.438 4.02777 107.166 3.80523 106.806 3.65845C106.446 3.50693 106.003 3.43117 105.478 3.43117H103.745V15.1428H100.229ZM108.418 8.49509L112.04 15.1428H108.205L104.654 8.49509H108.418ZM113.871 15.1428V0.597367H124.013V3.45248H117.387V6.43544H123.495V9.29765H117.387V12.2877H124.013V15.1428H113.871ZM126.615 15.1428V0.597367H132.623C133.712 0.597367 134.652 0.810436 135.443 1.23657C136.238 1.65797 136.852 2.24746 137.283 3.00504C137.713 3.75788 137.929 4.63383 137.929 5.63288C137.929 6.63667 137.709 7.51498 137.268 8.26782C136.833 9.01593 136.21 9.59595 135.4 10.0079C134.591 10.4198 133.63 10.6258 132.517 10.6258H128.81V7.85589H131.863C132.394 7.85589 132.837 7.76356 133.192 7.5789C133.551 7.39424 133.824 7.13619 134.008 6.80475C134.193 6.46858 134.285 6.07795 134.285 5.63288C134.285 5.18307 134.193 4.79481 134.008 4.46811C133.824 4.13667 133.551 3.88099 133.192 3.70106C132.832 3.52114 132.389 3.43117 131.863 3.43117H130.131V15.1428H126.615ZM140.062 15.1428V0.597367H150.204V3.45248H143.577V6.43544H149.685V9.29765H143.577V12.2877H150.204V15.1428H140.062ZM165.185 0.597367V15.1428H162.202L156.413 6.74794H156.321V15.1428H152.806V0.597367H155.831L161.556 8.97805H161.676V0.597367H165.185ZM167.795 15.1428V0.597367H177.937V3.45248H171.311V6.43544H177.419V9.29765H171.311V12.2877H177.937V15.1428H167.795ZM189.339 0.597367H192.847V9.97947C192.847 11.0638 192.589 12.0084 192.073 12.8133C191.557 13.6135 190.837 14.2337 189.914 14.6741C188.991 15.1097 187.918 15.3275 186.697 15.3275C185.461 15.3275 184.381 15.1097 183.458 14.6741C182.535 14.2337 181.818 13.6135 181.306 12.8133C180.795 12.0084 180.539 11.0638 180.539 9.97947V0.597367H184.055V9.67407C184.055 10.176 184.164 10.6234 184.381 11.0164C184.604 11.4094 184.914 11.7172 185.312 11.9397C185.71 12.1622 186.171 12.2735 186.697 12.2735C187.222 12.2735 187.682 12.1622 188.075 11.9397C188.472 11.7172 188.783 11.4094 189.005 11.0164C189.228 10.6234 189.339 10.176 189.339 9.67407V0.597367ZM195.451 15.1428V0.597367H201.459C202.548 0.597367 203.488 0.793864 204.279 1.18686C205.074 1.57511 205.688 2.13383 206.118 2.86299C206.549 3.58742 206.765 4.4468 206.765 5.44112C206.765 6.44964 206.545 7.30665 206.104 8.01214C205.664 8.7129 205.039 9.24794 204.229 9.61725C203.42 9.98184 202.461 10.1641 201.353 10.1641H197.553V7.39424H200.699C201.23 7.39424 201.672 7.32559 202.028 7.18828C202.387 7.04623 202.66 6.83316 202.844 6.54907C203.029 6.26025 203.121 5.89093 203.121 5.44112C203.121 4.99131 203.029 4.61962 202.844 4.32606C202.66 4.02777 202.387 3.80523 202.028 3.65845C201.668 3.50693 201.225 3.43117 200.699 3.43117H198.966V15.1428H195.451ZM203.64 8.49509L207.262 15.1428H203.427L199.876 8.49509H203.64Z" fill="white"/>
</svg>
