<svg width="195" height="16" viewBox="0 0 195 16" fill="none" xmlns="http://www.w3.org/2000/svg">
<path d="M8.96307 4.95819C8.91572 4.43736 8.70502 4.03253 8.33097 3.74371C7.96165 3.45014 7.43371 3.30336 6.74716 3.30336C6.29261 3.30336 5.91383 3.36255 5.6108 3.48092C5.30777 3.59929 5.08049 3.76264 4.92898 3.97098C4.77746 4.17458 4.69934 4.40895 4.6946 4.6741C4.68513 4.89191 4.72775 5.08367 4.82244 5.24939C4.92188 5.41511 5.06392 5.56189 5.24858 5.68973C5.43797 5.81283 5.66525 5.92174 5.9304 6.01643C6.19555 6.11113 6.49384 6.19399 6.82528 6.26501L8.07528 6.5491C8.79498 6.70535 9.42945 6.91369 9.97869 7.1741C10.5327 7.43452 10.9967 7.74465 11.3707 8.1045C11.7495 8.46435 12.036 8.87865 12.2301 9.3474C12.4242 9.81615 12.5237 10.3417 12.5284 10.9241C12.5237 11.8427 12.2917 12.631 11.8324 13.2892C11.3731 13.9473 10.7126 14.4516 9.85085 14.8019C8.99384 15.1523 7.95928 15.3275 6.74716 15.3275C5.5303 15.3275 4.4697 15.1452 3.56534 14.7806C2.66098 14.4161 1.95786 13.8621 1.45597 13.1187C0.954072 12.3753 0.696023 11.4355 0.681818 10.2991H4.0483C4.0767 10.7679 4.20218 11.1585 4.42472 11.471C4.64725 11.7835 4.95265 12.0202 5.34091 12.1812C5.7339 12.3422 6.18845 12.4227 6.70455 12.4227C7.17803 12.4227 7.58049 12.3588 7.91193 12.2309C8.24811 12.1031 8.50616 11.9255 8.68608 11.6983C8.866 11.471 8.95833 11.2106 8.96307 10.917C8.95833 10.6424 8.87311 10.408 8.70739 10.2139C8.54167 10.015 8.28598 9.84456 7.94034 9.70251C7.59943 9.55573 7.16383 9.42079 6.63352 9.29768L5.11364 8.94257C3.85417 8.65374 2.86222 8.18736 2.13778 7.54342C1.41335 6.89475 1.0535 6.0188 1.05824 4.91558C1.0535 4.01596 1.29498 3.22761 1.78267 2.55052C2.27036 1.87344 2.94508 1.3455 3.80682 0.966717C4.66856 0.587928 5.65104 0.398534 6.75426 0.398534C7.88116 0.398534 8.8589 0.590295 9.6875 0.973818C10.5208 1.35261 11.1671 1.88528 11.6264 2.57183C12.0857 3.25838 12.3201 4.05384 12.3295 4.95819H8.96307ZM14.2281 3.45251V0.597398H26.5222V3.45251H22.1116V15.1429H18.6457V3.45251H14.2281ZM37.4388 0.597398H40.9474V9.9795C40.9474 11.0638 40.6893 12.0084 40.1732 12.8133C39.6571 13.6135 38.9374 14.2338 38.0141 14.6741C37.0908 15.1097 36.0184 15.3275 34.7968 15.3275C33.561 15.3275 32.4815 15.1097 31.5582 14.6741C30.6349 14.2338 29.9175 13.6135 29.4062 12.8133C28.8948 12.0084 28.6391 11.0638 28.6391 9.9795V0.597398H32.1548V9.6741C32.1548 10.176 32.2637 10.6234 32.4815 11.0164C32.704 11.4094 33.0141 11.7172 33.4119 11.9397C33.8096 12.1623 34.2712 12.2735 34.7968 12.2735C35.3224 12.2735 35.7817 12.1623 36.1746 11.9397C36.5724 11.7172 36.8825 11.4094 37.105 11.0164C37.3276 10.6234 37.4388 10.176 37.4388 9.6741V0.597398ZM48.9273 15.1429H43.5509V0.597398H48.9202C50.4022 0.597398 51.6782 0.888591 52.7483 1.47098C53.8231 2.04863 54.6517 2.88196 55.2341 3.97098C55.8165 5.05526 56.1077 6.35261 56.1077 7.86302C56.1077 9.37817 55.8165 10.6803 55.2341 11.7693C54.6564 12.8583 53.8302 13.694 52.7554 14.2764C51.6806 14.854 50.4045 15.1429 48.9273 15.1429ZM47.0665 12.1457H48.7923C49.6067 12.1457 50.2956 12.0084 50.8591 11.7338C51.4273 11.4544 51.8558 11.0022 52.1446 10.3772C52.4382 9.74749 52.5849 8.90942 52.5849 7.86302C52.5849 6.81662 52.4382 5.98329 52.1446 5.36302C51.851 4.73802 51.4178 4.28821 50.8449 4.01359C50.2767 3.73423 49.5759 3.59456 48.7426 3.59456H47.0665V12.1457ZM58.5602 15.1429V0.597398H68.7023V3.45251H62.0759V6.43547H68.1838V9.29768H62.0759V12.2877H68.7023V15.1429H58.5602ZM83.6832 0.597398V15.1429H80.7003L74.9119 6.74797H74.8196V15.1429H71.304V0.597398H74.3295L80.054 8.97808H80.1747V0.597398H83.6832ZM85.818 3.45251V0.597398H98.112V3.45251H93.7015V15.1429H90.2356V3.45251H85.818ZM100.229 15.1429V0.597398H106.238C107.327 0.597398 108.266 0.810466 109.057 1.2366C109.853 1.658 110.466 2.24749 110.897 3.00507C111.327 3.75791 111.543 4.63386 111.543 5.63291C111.543 6.6367 111.323 7.51501 110.882 8.26785C110.447 9.01596 109.824 9.59598 109.014 10.0079C108.205 10.4198 107.244 10.6258 106.131 10.6258H102.424V7.85592H105.478C106.008 7.85592 106.451 7.76359 106.806 7.57893C107.166 7.39427 107.438 7.13622 107.622 6.80478C107.807 6.46861 107.899 6.07798 107.899 5.63291C107.899 5.1831 107.807 4.79484 107.622 4.46814C107.438 4.1367 107.166 3.88102 106.806 3.70109C106.446 3.52117 106.003 3.43121 105.478 3.43121H103.745V15.1429H100.229ZM113.676 15.1429V0.597398H119.684C120.773 0.597398 121.713 0.793894 122.504 1.18689C123.299 1.57514 123.913 2.13386 124.343 2.86302C124.774 3.58745 124.99 4.44683 124.99 5.44115C124.99 6.44967 124.77 7.30668 124.329 8.01217C123.889 8.71293 123.264 9.24797 122.454 9.61728C121.645 9.98187 120.686 10.1642 119.578 10.1642H115.778V7.39427H118.924C119.455 7.39427 119.897 7.32562 120.253 7.18831C120.612 7.04626 120.885 6.83319 121.069 6.5491C121.254 6.26028 121.346 5.89096 121.346 5.44115C121.346 4.99134 121.254 4.61965 121.069 4.32609C120.885 4.0278 120.612 3.80526 120.253 3.65848C119.893 3.50696 119.45 3.43121 118.924 3.43121H117.191V15.1429H113.676ZM121.865 8.49513L125.487 15.1429H121.652L118.101 8.49513H121.865ZM127.318 15.1429V0.597398H137.46V3.45251H130.834V6.43547H136.942V9.29768H130.834V12.2877H137.46V15.1429H127.318ZM152.441 0.597398V15.1429H149.458L143.67 6.74797H143.577V15.1429H140.062V0.597398H143.087L148.812 8.97808H148.933V0.597398H152.441ZM155.052 15.1429V0.597398H165.194V3.45251H158.567V6.43547H164.675V9.29768H158.567V12.2877H165.194V15.1429H155.052ZM176.595 0.597398H180.104V9.9795C180.104 11.0638 179.846 12.0084 179.329 12.8133C178.813 13.6135 178.094 14.2338 177.17 14.6741C176.247 15.1097 175.175 15.3275 173.953 15.3275C172.717 15.3275 171.638 15.1097 170.714 14.6741C169.791 14.2338 169.074 13.6135 168.562 12.8133C168.051 12.0084 167.795 11.0638 167.795 9.9795V0.597398H171.311V9.6741C171.311 10.176 171.42 10.6234 171.638 11.0164C171.86 11.4094 172.17 11.7172 172.568 11.9397C172.966 12.1623 173.427 12.2735 173.953 12.2735C174.479 12.2735 174.938 12.1623 175.331 11.9397C175.729 11.7172 176.039 11.4094 176.261 11.0164C176.484 10.6234 176.595 10.176 176.595 9.6741V0.597398ZM182.707 15.1429V0.597398H188.716C189.805 0.597398 190.745 0.793894 191.535 1.18689C192.331 1.57514 192.944 2.13386 193.375 2.86302C193.806 3.58745 194.021 4.44683 194.021 5.44115C194.021 6.44967 193.801 7.30668 193.361 8.01217C192.92 8.71293 192.295 9.24797 191.486 9.61728C190.676 9.98187 189.717 10.1642 188.609 10.1642H184.809V7.39427H187.956C188.486 7.39427 188.929 7.32562 189.284 7.18831C189.644 7.04626 189.916 6.83319 190.101 6.5491C190.285 6.26028 190.378 5.89096 190.378 5.44115C190.378 4.99134 190.285 4.61965 190.101 4.32609C189.916 4.0278 189.644 3.80526 189.284 3.65848C188.924 3.50696 188.481 3.43121 187.956 3.43121H186.223V15.1429H182.707ZM190.896 8.49513L194.518 15.1429H190.683L187.132 8.49513H190.896Z" fill="#101828"/>
</svg>
